# xmcd
#
# Track frame offsets:
#	150
#	12974
#	35524
#	48830
#	68253
#	83009
#	101678
#	113966
#	131512
#	152500
#
# Disc length: 2135 seconds
#
# Revision: 1
# Processed by: cddbd v1.5.2PL0 Copyright (c) Steve Scherf et al.
# Submitted via: audiograbber 1.82.02
#
DISCID=6e08550a
DTITLE=Muddy Waters - Can't Get No Grindin'
DYEAR=1973
DGENRE=Blues
TTITLE0=Can't Get No Grindin' (What's A Matter With The Meal)
TTITLE1=Mother's Bad Luck Child
TTITLE2=Funky Butt
TTITLE3=Sad Letter
TTITLE4=Someday I'm Gonna Ketch You
TTITLE5=Love Weapons
TTITLE6=Garbage Man
TTITLE7=After Hours
TTITLE8=Whiskey Ain't No Good
TTITLE9=Muddy Waters Shuffle
EXTD=
EXTT0=
EXTT1=
EXTT2=
EXTT3=
EXTT4=
EXTT5=
EXTT6=
EXTT7=
EXTT8=
EXTT9=
PLAYORDER=
